<svg xmlns="http://www.w3.org/2000/svg" xmlns:xlink="http://www.w3.org/1999/xlink" viewBox="0 0 1933.01 1080"><defs><style>.cls-1{fill:url(#linear-gradient);}.cls-2{opacity:0.85;fill:url(#linear-gradient-2);}.cls-3{opacity:0.65;fill:url(#linear-gradient-3);}</style><linearGradient id="linear-gradient" x1="1259.62" y1="240.41" x2="257.9" y2="1242.13" gradientUnits="userSpaceOnUse"><stop offset="0" stop-color="#2aa9ff"/><stop offset="1" stop-color="#3fffec"/></linearGradient><linearGradient id="linear-gradient-2" x1="102.94" y1="663.38" x2="-67.13" y2="833.45" gradientUnits="userSpaceOnUse"><stop offset="0" stop-color="#7473c8"/><stop offset="1" stop-color="#fff" stop-opacity="0"/></linearGradient><linearGradient id="linear-gradient-3" x1="2021.29" y1="437.64" x2="1861.14" y2="597.79" gradientTransform="matrix(1.3, -0.36, 0.35, 1.31, -823.56, 432.12)" xlink:href="#linear-gradient-2"/></defs><g id="Layer_2" data-name="Layer 2"><g id="Layer_1-2" data-name="Layer 1"><path class="cls-1" d="M0,1022a.05.05,0,0,0,.07,0,788,788,0,0,1,103.67-6.82,770.39,770.39,0,0,1,190.11,23.47A780.66,780.66,0,0,1,686.47,1042h0a780.37,780.37,0,0,1,388.44-4.31h0a782.16,782.16,0,0,1,361.58-2.5h0a773.23,773.23,0,0,1,175.63-20c112.56,0,217.83,23.66,307.7,64.76,0,0,.09,0,.09,0V440.08s7.68-215.43-449.28-215.43C1016.88,224.65,960.77,3,960,0c0,0,0,0-.06,0H.09A.06.06,0,0,0,0,.05"/><path class="cls-2" d="M0,549.3c100.53,0,182,80.07,182,178.85S100.53,907,0,907"/><path class="cls-3" d="M1933,593.26a101.72,101.72,0,0,1-89.74-49.74l-68.11-114.46a103.79,103.79,0,0,1-1.37-103.36l65-117.35a103.83,103.83,0,0,1,88.38-53.62"/></g></g></svg>