<svg xmlns="http://www.w3.org/2000/svg" viewBox="0 0 178.96 365.96"><defs><style>.cls-1{fill:#ffb8b8;}.cls-2{fill:#ccc;}.cls-3{fill:#2f2e41;}</style></defs><g id="Layer_2" data-name="Layer 2"><g id="Layer_1-2" data-name="Layer 1"><polygon class="cls-1" points="38.54 354.11 26.28 354.11 27.45 331.16 45.54 331.17 38.54 354.11"/><polygon class="cls-1" points="171.66 339.21 161.23 345.65 150.16 325.52 162.79 317.62 171.66 339.21"/><path class="cls-1" d="M.34,183.82a10.74,10.74,0,0,1,7.73-13.07,10.89,10.89,0,0,1,1.87-.31L71.06,94l15.12,14.1-64.56,73A10.8,10.8,0,0,1,.34,183.82Z"/><path class="cls-2" d="M59.33,106.17,78.65,121a4.81,4.81,0,0,0,6.75-.9,3.35,3.35,0,0,0,.39-.59L97.56,98.26a13.38,13.38,0,0,0-21.29-16.2L58.91,98.89a4.81,4.81,0,0,0-.1,6.81,4.6,4.6,0,0,0,.52.47Z"/><circle class="cls-1" cx="91.77" cy="35.48" r="24.56"/><path class="cls-3" d="M42.47,350.07H18.33A15.39,15.39,0,0,0,2.94,365.45h0v.5H42.47Z"/><path class="cls-3" d="M170.61,331.67l-20.54,12.68h0a15.39,15.39,0,0,0-5,21.18h0l.26.43L179,345.18Z"/><path class="cls-3" d="M40.23,347.34a4.48,4.48,0,0,0,4.2-2.9l44.34-106a1.5,1.5,0,0,1,1.93-.89,1.48,1.48,0,0,1,.72.56l60.93,96a4.5,4.5,0,0,0,5.64,1.57l8.33-3.9a4.51,4.51,0,0,0,2.2-5.92L118.61,214.57c1.09-2.66,11.72-29.88-4.61-43.33l-.12-.07L69.6,151.41l-1.12,34L24.33,338.55a4.51,4.51,0,0,0,3.08,5.57l.1,0,11.57,3A4.43,4.43,0,0,0,40.23,347.34Z"/><path class="cls-2" d="M68.93,101.72C70.61,95,73,88.12,76.21,85a39.62,39.62,0,0,0,3.31-3.65,24.43,24.43,0,0,1,8-6.51c-1.13-.63-1.79-1.38-1.79-2.18,0-2.21,4.93-4,11-4s11,1.79,11,4A1.93,1.93,0,0,1,107,74,23.43,23.43,0,0,1,121.5,93.49c1.42,15.21,1.83,34.66-3.14,47a45.29,45.29,0,0,0-.94,31.92,4,4,0,0,1-5.29,5L68.19,159.63a4,4,0,0,1-2.51-3.71V129A113.16,113.16,0,0,1,68.93,101.72Z"/><path class="cls-1" d="M153,212.5a10.74,10.74,0,0,1-8-12.9,10.52,10.52,0,0,1,.59-1.8l-34.39-90.67,17.44-4.51,31.8,89.75A10.8,10.8,0,0,1,153,212.5Z"/><path class="cls-2" d="M111.32,124.33l22-10.31a4.82,4.82,0,0,0,2.32-6.41,4.59,4.59,0,0,0-.35-.61L121.94,86.77a13.38,13.38,0,0,0-24.2,11.42l6.93,23.16a4.8,4.8,0,0,0,6,3.23A3.74,3.74,0,0,0,111.32,124.33Z"/><path class="cls-3" d="M69.21,29.43A5.52,5.52,0,0,1,66,28.85c-1.81-1.18-1.63-3.88-1-6A31,31,0,0,1,86.32,2.12c3.5-.93,7.92-.9,9.92,2.12a25.26,25.26,0,0,1,32.68,4c4.1,4.51,6.45,10.38,7.67,16.35,2.1,10.28,11.09,31.49,6.11,40.73-3.31,6.14-18.56,1.35-25,4s-14.29,2.38-20-1.61-8.74-11.88-6.28-18.42c1-2.53,2.6-4.72,3.9-7.09S97.56,37.13,97,34.5C96.07,30.39,76.69,29.28,69.21,29.43Z"/></g></g></svg>