<?xml version="1.0" standalone="no"?>
<svg style="fill:white;" width="64" height="64" viewBox="0 0 320 384" version="1.1" xmlns="http://www.w3.org/2000/svg">
  <path d="M264 224h56v-240h-320v240h56v72c0 57 47 104 104 104s104 -47 104 -104v-72zM72 296v-72h176v72c0 49 -39 88 -88 88s-88 -39 -88 -88zM304 0v208h-288v-208h288zM160 160c18 0 32 -14 32 -32c0 -15 -10 -27 -24 -31v-33h-16v33c-14 4 -24 16 -24 31c0 18 14 32 32 32z M160 112c9 0 16 7 16 16s-7 16 -16 16s-16 -7 -16 -16s7 -16 16 -16z" transform="matrix(1,0,0,-1,0,384)"/>
</svg>