<svg xmlns="http://www.w3.org/2000/svg" viewBox="0 0 58.12 98.89"><defs><style>.cls-1{fill:#6c63ff;}.cls-2{fill:#3f3d56;}</style></defs><g id="Layer_2" data-name="Layer 2"><g id="Layer_1-2" data-name="Layer 1"><path class="cls-1" d="M23.19,26.89c0-5.49,4.32-10.23,10.38-11.39-7.1-1.35-14.08,2.66-15.6,9s3,12.48,10.08,13.83a14.64,14.64,0,0,0,5.52,0C27.51,37.13,23.19,32.38,23.19,26.89Z"/><path class="cls-1" d="M7,26.4C7,13.25,17.84,2.17,32.24.56,16.48-1.19,2.15,9,.21,23.24A24,24,0,0,0,0,26.4C0,38.08,19,71,26.07,83a3.18,3.18,0,0,0,4.09,1.11A2.88,2.88,0,0,0,31.39,83l.85-1.43C24.58,68.58,7,37.65,7,26.4Z"/><ellipse class="cls-1" cx="28.97" cy="97.42" rx="9.45" ry="1.47"/><path class="cls-2" d="M29.12,84.55A3.35,3.35,0,0,1,26.22,83C18.37,69.79.12,37.87.12,26.28.12,11.77,13.1,0,29.12,0s29,11.77,29,26.28C58.12,37.87,39.86,69.79,32,83A3.35,3.35,0,0,1,29.12,84.55Zm0-84.06C13.41.51.68,12,.66,26.28c0,11.48,18.21,43.31,26,56.47a2.9,2.9,0,0,0,3.72,1,2.62,2.62,0,0,0,1.12-1c7.83-13.16,26-45,26-56.47C57.56,12,44.83.51,29.12.49Z"/><path class="cls-2" d="M30.86,38.77c-7.25,0-13.12-5.33-13.12-11.9S23.61,15,30.86,15,44,20.3,44,26.87h0C44,33.44,38.1,38.76,30.86,38.77Zm0-23.3c-6.95,0-12.58,5.1-12.58,11.4s5.63,11.41,12.58,11.41,12.58-5.11,12.58-11.41h0c0-6.29-5.63-11.39-12.58-11.4Z"/></g></g></svg>