<?xml version="1.0" standalone="no"?>
<svg style="fill:white;" width="64" height="64" viewBox="0 0 1024 768" version="1.1" xmlns="http://www.w3.org/2000/svg">
  <path d="M682.5 427q54.5 0 91.5 36.5t37 91t-37 91.5t-91.5 37t-91 -37t-36.5 -91.5t36.5 -91t91 -36.5zM341.5 427q54.5 0 91 36.5t36.5 91t-36.5 91.5t-91 37t-91.5 -37t-37 -91.5t37 -91t91.5 -36.5zM341 341q-39 0 -88.5 -9.5t-97 -27.5t-80 -47.5t-32.5 -64.5v-107h597v107    q0 35 -32.5 64.5t-80.5 47.5t-97.5 27.5t-88.5 9.5zM683 341q-26 0 -43 -4q40 -26 62.5 -63.5t22.5 -81.5v-107h256v107q0 35 -32.5 64.5t-80 47.5t-97 27.5t-88.5 9.5z" transform="matrix(1,0,0,-1,0,768)"/>
</svg>