<?xml version="1.0" standalone="no"?>
<svg width="64" height="64" viewBox="0 0 332 384" version="1.1" xmlns="http://www.w3.org/2000/svg">
  <path d="M321 139c7 -3 11 -12 11 -21v-77v-14c0 -12 -9 -22 -19 -22h-123v70v2v0l-20 34v0v1v0c-1 1 -2 2 -4 2s-2 -1 -3 -2v0l-21 -35h1c0 -1 -1 -1 -1 -2v-70h-123c-10 0 -19 10 -19 22v14v77c0 9 5 18 12 21l83 38l32 15c-15 9 -27 22 -35 39c-7 14 -11 31 -11 49 c0 10 2 20 4 29c11 40 43 70 81 70c39 0 72 -30 82 -72c2 -9 3 -18 3 -27c0 -17 -4 -32 -10 -46c-8 -17 -19 -32 -34 -41l33 -16zM190 162v2c0 2 -2 4 -4 4h-40c-2 0 -4 -2 -4 -4c0 -1 1 -1 1 -2v0l19 -35v0h1v0c1 -1 1 -2 3 -2s3 1 4 2v0l20 35v0z" transform="matrix(1,0,0,-1,0,384)"/>
</svg>