<svg xmlns="http://www.w3.org/2000/svg" viewBox="0 0 300 406"><defs><style>.cls-1{fill:gold;}.cls-2{fill:#fff;}.cls-2,.cls-3{opacity:0.1;isolation:isolate;}.cls-4{fill:#3f3d56;}</style></defs><g id="Layer_2" data-name="Layer 2"><g id="Layer_1-2" data-name="Layer 1"><path class="cls-1" d="M299.81,26.64l-.54,8.64c-.08,1.17-2,29.1-15.92,61.73-12,28-35.26,64.46-79.24,85-3.43,1.6-7,3.11-10.68,4.5l-4.12-15.33a139.77,139.77,0,0,0,29.7-15.4c22.42-15.34,39.84-37.24,52-65.42a198.69,198.69,0,0,0,13.65-47.59h-50V26.64Z"/><path class="cls-2" d="M198.73,182C242.69,161.47,266,125,278,97,291.9,64.4,293.8,36.49,293.87,35.3l.54-8.64H300l-.54,8.64c-.07,1.17-2,29.1-15.92,61.73-12,28-35.26,64.44-79.23,84.94q-5.15,2.4-10.69,4.51l-.54-2Q196,183.25,198.73,182Z"/><path class="cls-1" d="M110.7,171.13l-4.11,15.33q-5.55-2.1-10.7-4.51C51.93,161.46,28.63,125,16.67,97,2.72,64.38.82,36.47.75,35.28L.21,26.64H65.37V42.72h-50A198.74,198.74,0,0,0,29,90.31c12.15,28.18,29.57,50.08,52,65.41A139.36,139.36,0,0,0,110.7,171.13Z"/><path class="cls-2" d="M101.27,182C57.31,161.47,34,125,22.05,97,8.1,64.4,6.2,36.49,6.13,35.3l-.54-8.64H0L.54,35.3c.07,1.17,2,29.1,15.92,61.73,12,28,35.26,64.44,79.23,84.94q5.15,2.4,10.69,4.51l.54-2Q104,183.25,101.27,182Z"/><path class="cls-1" d="M237,319.28V406H60V319.28l5.63-7.57c57.36-20.53,69-74.06,71.3-95.24q.51-4.4.59-8.82h21.89a83.91,83.91,0,0,0,.59,8.82c2.35,21.18,14,74.73,71.3,95.24Z"/><rect class="cls-3" x="74.73" y="319.28" width="150.54" height="10.88"/><path class="cls-2" d="M87.5,311.71c48.78-20.53,58.67-74.06,60.64-95.24q.44-4.4.5-8.82h-8c0,2.95-.2,5.89-.5,8.82-2,21.18-11.89,74.73-60.64,95.24l-4.79,7.57V406h8V319.28Z"/><path class="cls-3" d="M51.86,26.64H65.37V42.72H53.06Q52.34,34.77,51.86,26.64Z"/><path class="cls-3" d="M248.14,26.64q-.48,8.13-1.2,16.08h-12.3V26.64Z"/><path class="cls-1" d="M53.46,0C53.8,119.25,96.89,215.69,150,215.69S246.2,119.25,246.56,0Z"/><path class="cls-2" d="M70.62,0H53.46C53.8,119.25,96.89,215.69,150,215.69a44.35,44.35,0,0,0,8.58-.86C109.48,205.1,70.94,112.76,70.62,0Z"/><rect class="cls-4" x="98.81" y="352.47" width="102.4" height="31.22"/><polygon class="cls-2" points="103.59 356.73 201.2 356.73 201.2 352.48 98.81 352.48 98.81 383.69 103.59 383.69 103.59 356.73"/><path class="cls-1" d="M113,373.19a27.6,27.6,0,0,1-1.19,3.12,21,21,0,0,1-4,.49c-5.16,0-7.8-3.28-7.8-6.9,0-4.22,3.35-7.13,8.19-7.13a23.64,23.64,0,0,1,4.09.47c.08.93.23,2.17.41,3.21l-.67.14a3.62,3.62,0,0,0-2.06-2.67,6.06,6.06,0,0,0-2.26-.39c-3.57,0-5.45,2.52-5.45,5.93,0,4,2.16,6.56,5.66,6.56,2.21,0,3.29-1,4.39-3Z"/><path class="cls-1" d="M127.86,376.66c-.28,0-.52,0-.8,0a3.89,3.89,0,0,1-3.37-1.78c-.8-1-1.58-2.36-2.27-3.41-.43-.66-.71-.79-1.81-.79h-.76v3.25c0,1.76.24,1.86,2,2v.57h-5.77v-.57c1.79-.19,1.94-.27,1.94-2v-8.25c0-1.76-.24-1.82-1.94-2v-.58h5.51a6.28,6.28,0,0,1,3.45.71,3.05,3.05,0,0,1,1.47,2.73c0,1.78-1.19,2.89-2.78,3.55.38.64,1.31,2,2,3a18.69,18.69,0,0,0,1.71,2.13,3.08,3.08,0,0,0,1.58.95Zm-8-6.72a3.6,3.6,0,0,0,2.37-.6,2.84,2.84,0,0,0,1.19-2.54c0-2.22-1.53-3-3.2-3a2,2,0,0,0-1.14.21c-.2.14-.26.35-.26.88v5.07Z"/><path class="cls-1" d="M137.1,376.49v-.57c1.41-.17,1.58-.38,1.28-1.16s-.71-1.84-1.17-3.15h-4.66c-.35.93-.67,1.74-1,2.59-.47,1.34-.17,1.51,1.6,1.72v.57h-5v-.57c1.36-.17,1.71-.31,2.46-2.18l4.48-10.85.69-.12c1.36,3.53,2.85,7.44,4.21,11,.69,1.79.89,2,2.42,2.13v.57Zm-2.16-11c-.69,1.78-1.42,3.66-2.07,5.3h4Z"/><path class="cls-1" d="M156.14,373.19a27.6,27.6,0,0,1-1.19,3.12,21,21,0,0,1-3.95.49c-5.17,0-7.81-3.28-7.81-6.9,0-4.22,3.35-7.13,8.19-7.13a23.64,23.64,0,0,1,4.09.47c.08.93.24,2.17.41,3.21l-.67.14a3.61,3.61,0,0,0-2.05-2.67,6.15,6.15,0,0,0-2.27-.39c-3.57,0-5.45,2.52-5.45,5.93,0,4,2.16,6.56,5.66,6.56,2.21,0,3.29-1,4.39-3Z"/><path class="cls-1" d="M158.21,363.05H164v.58c-1.69.15-2,.29-2,2.13v3.56a3.08,3.08,0,0,0,1.56-.95c1.2-1.1,2.65-2.5,3.65-3.58.64-.7.58-1-.35-1.09l-.6-.07v-.58h5.25v.58a4.7,4.7,0,0,0-3.63,1.72c-.65.6-2.34,2.17-3.72,3.47,1.64,1.86,4,4.51,5.16,5.65a3.42,3.42,0,0,0,2.73,1.45v.57h-3.46c-1.66-1.79-3.41-3.8-5.38-6a1.33,1.33,0,0,0-1.21-.6v3.93c0,1.8.19,1.94,2,2.09v.57h-5.77v-.57c1.77-.15,1.94-.29,1.94-2.09v-8.07c0-1.86-.15-2-1.94-2.13Z"/><path class="cls-1" d="M184.28,373.21c-.12.53-.71,2.66-.92,3.28H172.85v-.57c2-.15,2.17-.34,2.17-2v-8.17c0-1.84-.24-1.94-1.86-2.09v-.58h6.61c2,0,2.87,0,3.13,0,0,.52.11,2.07.2,3.17l-.65.1a6.82,6.82,0,0,0-.65-1.57c-.35-.68-.84-.83-2.14-.83h-2c-.67,0-.71.06-.71.66v4.57h2.39c1.62,0,1.73-.31,2-1.71H182v4.26h-.67c-.28-1.49-.45-1.7-2-1.7H176.9v4.12c0,1.44.47,1.57,1.55,1.59h2c1.32,0,1.53-.19,2-.73a9,9,0,0,0,1.17-1.9Z"/><path class="cls-1" d="M191.8,363.05c3,0,5,.58,6.31,1.8a5.87,5.87,0,0,1,1.84,4.43,6.69,6.69,0,0,1-2.7,5.58,10.64,10.64,0,0,1-6.4,1.63h-5v-.57c1.85-.17,1.94-.31,1.94-2v-8.25c0-1.78-.26-1.86-1.94-2v-.58Zm-2.18,10.69c0,1.55.69,2,2.31,2,3.89,0,5.88-2.54,5.88-6.16a5.29,5.29,0,0,0-2.51-5,7,7,0,0,0-3.69-.83,3.16,3.16,0,0,0-1.71.29c-.19.12-.28.35-.28,1.16Z"/></g></g></svg>