<svg xmlns="http://www.w3.org/2000/svg" viewBox="0 0 795.51 617.5"><defs><style>.cls-1{fill:#00acf4;}.cls-2{fill:#9e616a;}.cls-3{fill:#e4e4e4;}.cls-4{fill:#3f3d56;}.cls-5{fill:#2f2e41;}.cls-6{fill:#ffb6b6;}.cls-7{fill:#e6e6e6;}</style></defs><g id="Layer_2" data-name="Layer 2"><g id="Layer_1-2" data-name="Layer 1"><path class="cls-1" d="M0,617.5V0S519.36-9.7,795.51,286.37V617.5Z"/><path class="cls-2" d="M402.51,405.27l1-37.09-4.41-34.49-6.6.5-5.55,36.3,6.2,38.91a11.38,11.38,0,0,0,2.05,14.7c4.18,3.42,10.05,2.39,13.1-2.3a11.38,11.38,0,0,0-2.05-14.7,9,9,0,0,0-3.73-1.83Z"/><polygon class="cls-2" points="396.17 498.3 377.67 586.22 391.61 587.33 418.32 502.24 396.17 498.3"/><polygon class="cls-2" points="435.14 496.52 460.67 582.19 473.03 574.89 453.44 488.77 435.14 496.52"/><path class="cls-3" d="M398.2,408.74s-8.86,11,6.43,32.12L384.8,557.48l14.74,6,26.79-78.2L450.44,553l18.76-9L443.58,440.86l2.85-26.25-7.09-7.35Z"/><path class="cls-4" d="M422.61,284s-26.82,11.8-24.14,29.85l6.6,71.33-6.79,24.74s45.26,8.16,53.53-1.09l1.58-78.44,3-31L442,292.9l-3.58-6Z"/><polygon class="cls-4" points="398.02 308.92 388.24 333.64 402.78 339.97 398.02 308.92"/><path class="cls-2" d="M480.9,406.54l-11.79-70.69-18.77-1.76,5.29,35.49,12.78,40.15c-2.91,4.82-1.78,11.37,2.5,14.63s10.13,2,13-2.81,1.79-11.37-2.5-14.63c-.18-.13-.35-.26-.54-.38Z"/><path class="cls-4" d="M436,308.05l10.82,34.49,21-3.11s4.59-31.93-10.43-40Z"/><path id="aadf75e6-ac14-4c0d-b07b-d38ba10ebdab" class="cls-2" d="M453.71,270.71c-.54,29.53-41.06,24.49-35.69-4.53C422.15,243.1,454.26,247.2,453.71,270.71Z"/><path id="e2c3cfee-80d7-4301-b109-7608295bf7e0" class="cls-4" d="M448.84,243.74c-12.7,2.43-32.38-3.28-32,19-1.3,2.19-2.73,4.59-1.81,7.33,4.48,6.13,6.82,15.63,12.67,19.94,5.22,0,12,.77,15.52-4.33,1.48-4.19-1.15-9.29,1.09-13.22,2.94-1.05,5.81,3.17,7-2.84a8.64,8.64,0,0,1,3-7.66C458.86,256.09,455.73,245.19,448.84,243.74Z"/><path class="cls-5" d="M370.58,585h21.9c7.71,0,14,7,14,15.67v.5H370.58Z"/><path class="cls-5" d="M454.3,582.41l21.41-5.18h0c7.54-1.83,15,3.55,16.59,12l.1.5-35.06,8.49Z"/><polygon class="cls-6" points="539.3 583.13 546.38 583.13 549.74 552.48 539.3 552.48 539.3 583.13"/><path class="cls-5" d="M533.49,582.53h13.94c4.91,0,8.88,4.46,8.88,10v.33H533.49Z"/><polygon class="cls-6" points="509.13 583.13 516.21 583.13 519.57 552.48 509.13 552.48 509.13 583.13"/><path class="cls-5" d="M503.32,582.53h13.94c4.91,0,8.88,4.46,8.88,10v.33H503.32Z"/><path class="cls-6" d="M597.76,234.65c0-5-3.59-9-8-9s-8,4-8,9a10,10,0,0,0,.6,3.43L566,267l-10.12,22.9,8.35,8.33,6.43-7.6,21-47.21C595.27,242.37,597.76,238.77,597.76,234.65Z"/><path class="cls-6" d="M514.37,332.4l-15.94-2.77L494.63,362l-20.69,50a9.7,9.7,0,0,0-2.57,12.44c2.35,4.23,7.31,5.52,11.08,2.89A9.69,9.69,0,0,0,485,414.88L506.66,371Z"/><path class="cls-5" d="M512.82,390.91s-14,14.55-12.23,51.14l3.92,56.53-1,78.79,14.4-1.27,12.58-132,12,54.14-4.32,72.12,13.87.37,14.57-81.51-3.46-60.42-5.8-37.84Z"/><path class="cls-3" d="M532.2,304.19l-33.49,10.53,17,57.28-2.55,21.91,51.64.37-12-42.35s6.71-15.49-1-26.35Z"/><path class="cls-3" d="M532.18,307.14l4-9s-.13-2.27,9.31-3.39l11.08-12.36,10.14,11.34L549.6,322.18Z"/><path class="cls-3" d="M515.11,321.17s-12.06-15-18.76-7.52-3.26,31.43-3.26,31.43L514,348.71Z"/><path id="bf97ead5-a8ed-4eb0-acc5-869eed05cf08" class="cls-6" d="M510.08,260.91c17.6-10.56,35.78,19.4,18.28,30.14C510.76,301.61,492.58,271.65,510.08,260.91Z"/><path class="cls-5" d="M520.51,270.82c2.77,1.83,5.66,3.71,8.86,4.1s6.82-1.12,8.11-4.43a11.56,11.56,0,0,0,.63-3.61,25.82,25.82,0,0,0-5.4-17.16,18.4,18.4,0,0,0-14.85-7.05c-5.31.26-10.21,3.08-14.92,5.83-4.33,2.54-8.9,5.33-11.25,10.14-3.49,7.12-.95,15.83-.27,23.92a48.72,48.72,0,0,1-9.68,33.52L511,319.19a30.36,30.36,0,0,0,10.67-.12c9.19-2.3,15-12.53,12.92-22.85a19.87,19.87,0,0,0-4.81-9.62c-4.15-4.48-10.82-7.65-11-14.11"/><rect class="cls-7" x="644.58" y="139.37" width="5.13" height="99" transform="translate(393.68 813.55) rotate(-84.18)"/><circle class="cls-7" cx="566.95" cy="179.74" r="9.53"/><rect class="cls-3" x="644.58" y="176.37" width="5.13" height="99" transform="translate(356.87 846.81) rotate(-84.18)"/><circle class="cls-3" cx="566.95" cy="216.74" r="9.53"/></g></g></svg>