<svg xmlns="http://www.w3.org/2000/svg" viewBox="0 0 688 700"><defs><style>.cls-1{fill:#00acf4;}.cls-2{fill:#ccc;}.cls-3{fill:#fff;}.cls-4{fill:#e6e6e6;}.cls-5{fill:#3f3d56;}.cls-6{fill:#ffb6b6;}.cls-7{fill:#2e3192;}.cls-8{fill:#e4e4e4;}.cls-9{fill:#2f2e41;}</style></defs><g id="Layer_2" data-name="Layer 2"><g id="Layer_1-2" data-name="Layer 1"><path class="cls-1" d="M688,0H0s-10.85,457,319,700H688Z"/><path class="cls-2" d="M560.15,459.18h-509a7.84,7.84,0,1,0,0,15.66H65.57V662.17a8.15,8.15,0,0,0,16.29,0L82,474.84H490.52l37.66,187.33a8.16,8.16,0,0,0,16.3,0l2.37-187.33h13.3a7.84,7.84,0,1,0,0-15.66Z"/><path class="cls-2" d="M223.66,576.52V547.61a4.93,4.93,0,0,0-5-4.82H104.56a4.93,4.93,0,0,0-5,4.82v28.91Z"/><rect class="cls-2" x="99.54" y="587.36" width="124.12" height="37.34"/><path class="cls-2" d="M99.54,635.55v28.91a4.93,4.93,0,0,0,5,4.82H218.64a4.93,4.93,0,0,0,5-4.82V635.55Z"/><ellipse class="cls-3" cx="160.97" cy="560.86" rx="3.76" ry="3.61"/><ellipse class="cls-3" cx="160.97" cy="609.05" rx="3.76" ry="3.61"/><ellipse class="cls-3" cx="161.17" cy="656.21" rx="3.76" ry="3.61"/><path class="cls-4" d="M330.94,458.43l-4.16-1.68-2.86-20h-38l-3.09,20-3.72,1.78a.83.83,0,0,0-.4,1.14.89.89,0,0,0,.79.47h51.08a.87.87,0,0,0,.89-.85A.86.86,0,0,0,330.94,458.43Z"/><path class="cls-2" d="M398.46,439.38H211.82a3.62,3.62,0,0,1-3.69-3.55V410.54h194v25.29A3.63,3.63,0,0,1,398.46,439.38Z"/><path class="cls-5" d="M402.34,422.49H208V314.28a4.37,4.37,0,0,1,4.45-4.28H397.88a4.38,4.38,0,0,1,4.46,4.28Z"/><path class="cls-3" d="M390.73,414.64H219.57a3.38,3.38,0,0,1-3.44-3.31V321.16a3.38,3.38,0,0,1,3.44-3.31H390.73a3.39,3.39,0,0,1,3.44,3.31v90.17A3.39,3.39,0,0,1,390.73,414.64Z"/><path class="cls-6" d="M345.65,446.46a10.44,10.44,0,0,1,15.65,1.93l23.15-4,5.93,12.94-32.77,5.14a10.58,10.58,0,0,1-14.06-3.92A9.66,9.66,0,0,1,345.65,446.46Z"/><path class="cls-7" d="M367.08,463l24.14-.29,3.06,0,49.1-.59s13.34-12.23,24.95-24.82l-1.63-11.31a45.72,45.72,0,0,0-16.13-28.61C433.94,408,424.3,429.12,424.3,429.12l-30.45,7-3,.7-18.92,4.35Z"/><path class="cls-8" d="M490.64,532.49H445.59c0,1.86-49.25,3.36-49.25,3.36a17.57,17.57,0,0,0-2.95,2.69,16.27,16.27,0,0,0-4.06,10.75V552c0,9.28,7.83,16.8,17.48,16.81h83.83c9.65,0,17.48-7.53,17.49-16.81v-2.69C508.11,540,500.29,532.51,490.64,532.49Z"/><rect class="cls-8" x="439.69" y="568.12" width="18.19" height="100.86"/><path class="cls-8" d="M387.93,668.37c0,1.88,27.56.73,61.55.73s61.56,1.15,61.56-.73-27.56-16.86-61.56-16.86S387.93,666.48,387.93,668.37Z"/><polygon class="cls-6" points="375.72 656.84 362.18 656.84 355.75 606.68 375.72 606.68 375.72 656.84"/><path class="cls-9" d="M379.17,669.45H335.53v-.54c0-9,7.6-16.32,17-16.32h26.66Z"/><polygon class="cls-6" points="335.72 656.84 322.18 656.84 315.74 606.68 335.72 606.68 335.72 656.84"/><path class="cls-9" d="M339.17,669.45H295.53v-.54c0-9,7.6-16.32,17-16.32h26.66Z"/><ellipse class="cls-6" cx="456.95" cy="345.44" rx="23.53" ry="22.61"/><path class="cls-9" d="M495,500.37s7.9,40.12-22.15,45.23-73.41,8.7-73.41,8.7L380,641.6l-26.16-2.24s3.48-105.1,12-113.32,62.64-32.84,62.64-32.84Z"/><path class="cls-9" d="M436.37,483.56l-13.14,12.66S328.35,510.91,324.69,532c-5.52,31.79-12.05,100.91-12.05,100.91l28.53-2,11.18-78.58,45.64-10,51.92-27.19Z"/><path class="cls-9" d="M479.6,331.94c-2.32-4.21-5.28-12.6-10-14.16a38.55,38.55,0,0,0-8-1.64l-8,2.95,4.34-3.25-2.53-.11-5.38,2,2.75-2c-5-.05-10.19.45-14.07,3.38-3.31,2.5-6.59,12-7.12,16a29.43,29.43,0,0,0,.58,11.52l1.36,1.25a15.26,15.26,0,0,0,1.07-3.27,15.57,15.57,0,0,1,7.71-10l.07,0c2.29-1.24,5.06-1.18,7.68-1.09l12.44.43c3,.1,6.21.29,8.55,2.09a13.5,13.5,0,0,1,3.41,4.76c1.16,2.25,3.43,10.73,3.43,10.73s1.28-1.6,1.9-.41a40,40,0,0,0,1.78-9.57A18.14,18.14,0,0,0,479.6,331.94Z"/><path class="cls-6" d="M561.9,355.37a9.81,9.81,0,0,0-9.31,12.24L533.67,381l5.68,13,26.44-19.3a9.87,9.87,0,0,0,6.72-12.49,10.35,10.35,0,0,0-10.61-6.9Z"/><path class="cls-7" d="M558.86,382.75l-47.44,50.63s-22.69-7-40.23-14.54l-7.89-23.27a44.48,44.48,0,0,1-2.3-16.73c24.32-6.22,52.61,16.92,52.61,16.92L549.12,369Z"/><path class="cls-7" d="M448.16,504.11c-8.46-2.81-17.21-5.71-26.65-6.81l-.41,0,.11-.38c9.78-33,7.34-54.06,2.55-85.74-2.09-14,5.68-27.71,19.09-33.62l.06,0,27-1.64h.06l19.61,5.54A13,13,0,0,1,499.16,394c-.21,10.42.24,22.05.72,34.36,1.07,27.63,2.18,56.2-4.1,74.73l0,.1-.08.06a32.82,32.82,0,0,1-20.45,6.91C466.41,510.17,457.43,507.18,448.16,504.11Z"/></g></g></svg>