<svg xmlns="http://www.w3.org/2000/svg" viewBox="0 0 617.5 679.5"><defs><style>.cls-1{fill:#00acf4;}.cls-2{fill:#9e616a;}.cls-3{fill:#e4e4e4;}.cls-4{fill:#3f3d56;}.cls-5{fill:#2f2e41;}.cls-6{fill:#ffb6b6;}.cls-7{fill:#e6e6e6;}</style></defs><g id="Layer_2" data-name="Layer 2"><g id="Layer_1-2" data-name="Layer 1"><path class="cls-1" d="M0,0H617.46s9.74,443.62-286.33,679.5H0Z"/><path class="cls-2" d="M275.5,379.87l1-37.1-4.41-34.49-6.6.5-5.55,36.3,6.2,38.91a11.38,11.38,0,0,0,2.05,14.7c4.18,3.43,10,2.4,13.09-2.3a11.37,11.37,0,0,0-2-14.7,8.75,8.75,0,0,0-3.72-1.82Z"/><polygon class="cls-2" points="269.15 472.89 250.66 560.81 264.59 561.92 291.31 476.83 269.15 472.89"/><polygon class="cls-2" points="308.13 471.12 333.65 556.78 346.02 549.48 326.43 463.36 308.13 471.12"/><path class="cls-3" d="M271.19,383.33s-8.86,11,6.43,32.12L257.79,532.07l14.74,6,26.79-78.2,24.11,67.67,18.76-9L316.57,415.45l2.84-26.25-7.08-7.35Z"/><path class="cls-4" d="M295.6,258.61s-26.82,11.8-24.14,29.85l6.59,71.34-6.78,24.74s45.25,8.16,53.53-1.1L326.38,305l3-31L315,267.49l-3.58-6Z"/><polygon class="cls-4" points="271.01 283.51 261.23 308.24 275.77 314.56 271.01 283.51"/><path class="cls-2" d="M353.89,381.13,342.1,310.44l-18.77-1.75,5.29,35.48,12.78,40.15c-2.91,4.82-1.79,11.37,2.5,14.63s10.12,2,13-2.81,1.79-11.37-2.5-14.63l-.54-.38Z"/><path class="cls-4" d="M309,282.64l10.83,34.49L340.78,314s4.59-31.93-10.44-40Z"/><path id="aadf75e6-ac14-4c0d-b07b-d38ba10ebdab" class="cls-2" d="M326.7,245.3c-.55,29.53-41.06,24.49-35.69-4.52C295.14,217.69,327.25,221.79,326.7,245.3Z"/><path id="e2c3cfee-80d7-4301-b109-7608295bf7e0" class="cls-4" d="M321.83,218.33c-12.7,2.44-32.38-3.28-32,19-1.3,2.19-2.74,4.59-1.81,7.33,4.48,6.13,6.82,15.63,12.67,19.94,5.21,0,12,.77,15.51-4.33,1.49-4.19-1.14-9.29,1.1-13.22,2.94-1.05,5.81,3.17,7-2.84a8.63,8.63,0,0,1,3-7.66C331.85,230.68,328.72,219.78,321.83,218.33Z"/><path class="cls-5" d="M245.57,561.62h21.9c7.71,0,14,7,14,15.67v.51H245.57Z"/><path class="cls-5" d="M327.29,557l21.41-5.18h0c7.54-1.82,15,3.55,16.59,12l.09.5-35.05,8.49Z"/><polygon class="cls-6" points="420.29 561.72 427.36 561.72 430.73 531.07 420.29 531.07 420.29 561.72"/><path class="cls-5" d="M414.48,561.12h13.94c4.9,0,8.88,4.47,8.88,10v.33H414.48Z"/><polygon class="cls-6" points="390.12 566.72 397.19 566.72 400.56 536.07 390.12 536.07 390.12 566.72"/><path class="cls-5" d="M384.31,564.12h13.94c4.9,0,8.88,4.47,8.88,10v.33H384.31Z"/><path class="cls-6" d="M478.75,213.25c0-5-3.59-9-8-9s-8,4-8,9a10,10,0,0,0,.6,3.43L447,245.56l-10.13,22.9,8.36,8.33,6.43-7.6,21-47.21A8.89,8.89,0,0,0,478.75,213.25Z"/><path class="cls-6" d="M395.36,311l-15.94-2.77-3.8,32.37-20.69,50A9.7,9.7,0,0,0,352.36,403c2.35,4.23,7.31,5.52,11.08,2.89A9.7,9.7,0,0,0,366,393.47l21.63-43.85Z"/><path class="cls-5" d="M393.81,369.5s-14,14.55-12.24,51.14l3.93,56.53-1,78.8,14.4-1.27,12.58-132.06,12.05,54.14-4.33,72.13,13.87.36,14.58-81.51-3.46-60.42-5.8-37.84Z"/><path class="cls-3" d="M415.19,277.78,381.7,288.31l17,57.28-2.55,21.91,51.64.38-12-42.36s6.71-15.49-.95-26.35Z"/><path class="cls-3" d="M413.17,285.73l4-9s-.13-2.27,9.31-3.39L437.58,261l10.14,11.34-17.14,28.47Z"/><path class="cls-3" d="M396.09,299.76s-12-15-18.75-7.52-3.26,31.43-3.26,31.43l20.86,3.63Z"/><path id="bf97ead5-a8ed-4eb0-acc5-869eed05cf08" class="cls-6" d="M391.06,239.51c17.61-10.57,35.79,19.39,18.29,30.13C391.75,280.21,373.56,250.24,391.06,239.51Z"/><path class="cls-5" d="M401.49,244.41c2.78,1.83,5.66,3.71,8.87,4.1s6.82-1.12,8.11-4.43a11.56,11.56,0,0,0,.63-3.61,25.78,25.78,0,0,0-5.41-17.16,18.37,18.37,0,0,0-14.85-7.05c-5.3.26-10.2,3.08-14.91,5.83-4.33,2.54-8.9,5.34-11.26,10.14-3.48,7.12-.94,15.84-.26,23.92a48.81,48.81,0,0,1-9.68,33.53l29.21,3.1a30.36,30.36,0,0,0,10.67-.12c9.19-2.3,15-12.53,12.92-22.85a19.87,19.87,0,0,0-4.81-9.62c-4.15-4.48-10.82-7.65-11-14.11"/><rect class="cls-7" x="525.57" y="110.96" width="5.13" height="99" transform="translate(314.99 669.62) rotate(-84.18)"/><circle class="cls-7" cx="447.94" cy="151.33" r="9.53"/><rect class="cls-3" x="525.57" y="147.96" width="5.13" height="99" transform="translate(278.18 702.88) rotate(-84.18)"/><circle class="cls-3" cx="447.94" cy="188.33" r="9.53"/></g></g></svg>