<svg xmlns="http://www.w3.org/2000/svg" viewBox="0 0 1337.84 706.6"><defs><style>.cls-1{fill:#3f3d56;}.cls-2{fill:#ff6584;}.cls-3{fill:#e6e6e6;}.cls-4{fill:#fff;}.cls-5{fill:#6c63ff;}</style></defs><g id="Layer_2" data-name="Layer 2"><g id="Layer_1-2" data-name="Layer 1"><polygon class="cls-1" points="1099.44 330 1092.13 330 1095.46 211.75 1099.44 330"/><ellipse class="cls-2" cx="500" cy="210.56" rx="71.34" ry="69.44"/><path class="cls-1" d="M502.53,347H114.92a8.78,8.78,0,0,1-1.45-.12L296.79,38.07a13,13,0,0,1,17.49-4.72,12.6,12.6,0,0,1,4.86,4.72l123,207.24,5.89,9.91Z"/><path class="cls-1" d="M703,347H389l60.85-89.22,4.38-6.42,79.28-116.27c5.2-7.62,17.71-8.09,23.82-1.43a14.29,14.29,0,0,1,1.14,1.43Z"/><path class="cls-3" d="M1207.67,706.6H105.72C47.33,706.6,0,656.65,0,595S47.33,483.47,105.72,483.47H1205.23c22.46,0,40.66-19.21,40.66-42.91s-18.2-42.91-40.66-42.91H69.13V329h1136.1c58.39,0,105.74,49.9,105.77,111.51s-47.29,111.59-105.67,111.62H105.72c-22.46,0-40.66,19.21-40.66,42.9s18.2,42.91,40.66,42.91h1102Z"/><rect class="cls-4" x="103" y="361.34" width="60" height="4.64"/><rect class="cls-4" x="221" y="361.34" width="60" height="4.64"/><rect class="cls-4" x="332" y="361.34" width="60" height="4.64"/><rect class="cls-4" x="440" y="361.34" width="60" height="4.64"/><rect class="cls-4" x="548" y="361.34" width="60" height="4.64"/><rect class="cls-4" x="656" y="361.34" width="60" height="4.64"/><rect class="cls-4" x="758" y="361.34" width="60" height="4.64"/><rect class="cls-4" x="861" y="361.34" width="60" height="4.64"/><rect class="cls-4" x="962" y="361.34" width="60" height="4.64"/><rect class="cls-4" x="1066" y="361.34" width="60" height="4.64"/><rect class="cls-4" x="103.5" y="514.68" width="60" height="4.64"/><rect class="cls-4" x="221.5" y="514.68" width="60" height="4.64"/><rect class="cls-4" x="332.5" y="514.68" width="60" height="4.64"/><rect class="cls-4" x="440.5" y="514.68" width="60" height="4.64"/><rect class="cls-4" x="548.5" y="514.68" width="60" height="4.64"/><rect class="cls-4" x="656.5" y="514.68" width="60" height="4.64"/><rect class="cls-4" x="758.5" y="514.68" width="60" height="4.64"/><rect class="cls-4" x="861.5" y="514.68" width="60" height="4.64"/><rect class="cls-4" x="962.5" y="514.68" width="60" height="4.64"/><rect class="cls-4" x="1066.5" y="514.68" width="60" height="4.64"/><rect class="cls-4" x="103.5" y="669.68" width="60" height="4.64"/><rect class="cls-4" x="221.5" y="669.68" width="60" height="4.64"/><rect class="cls-4" x="332.5" y="669.68" width="60" height="4.64"/><rect class="cls-4" x="440.5" y="669.68" width="60" height="4.64"/><rect class="cls-4" x="548.5" y="669.68" width="60" height="4.64"/><rect class="cls-4" x="656.5" y="669.68" width="60" height="4.64"/><rect class="cls-4" x="758.5" y="669.68" width="60" height="4.64"/><rect class="cls-4" x="861.5" y="669.68" width="60" height="4.64"/><rect class="cls-4" x="962.5" y="669.68" width="60" height="4.64"/><rect class="cls-4" x="1066.5" y="669.68" width="60" height="4.64"/><path class="cls-3" d="M762.11,61.44c2.07-35.91,33.4-63.36,70-61.33,28.38,1.57,52.59,20.72,60.18,47.6.81,0,1.61-.06,2.42-.06,29.44,0,55.36,19,63.66,46.76A47.46,47.46,0,0,1,1014,108H807c-24.79.07-44.94-19.6-45-43.92q0-.84,0-1.68C762.08,62.08,762.09,61.76,762.11,61.44Z"/><path class="cls-3" d="M1044,102.38a28.59,28.59,0,0,1,16.53,5.23h-33A28.69,28.69,0,0,1,1044,102.38Z"/><path class="cls-3" d="M1085.9,105.69a20.72,20.72,0,0,1,10.13,2.62H1075.8A20.67,20.67,0,0,1,1085.9,105.69Z"/><path class="cls-3" d="M64.09,131.44c2.07-35.91,33.41-63.36,70-61.33,28.38,1.57,52.59,20.72,60.19,47.6.8,0,1.6-.06,2.42-.06,29.44,0,55.35,19,63.65,46.76A47.46,47.46,0,0,1,316,178H109c-24.78.07-44.93-19.6-45-43.92q0-.84,0-1.68C64.06,132.08,64.07,131.76,64.09,131.44Z"/><path class="cls-3" d="M970,152.25a29.48,29.48,0,0,0-14,3.5h28A29.36,29.36,0,0,0,970,152.25Z"/><path class="cls-3" d="M1016,150.5a40.42,40.42,0,0,0-22.86,7h45.68A40.42,40.42,0,0,0,1016,150.5Z"/><path class="cls-3" d="M1337.76,103.69c-2.32-39.56-37.35-69.81-78.26-67.57-31.73,1.73-58.79,22.83-67.29,52.45-.9,0-1.8-.07-2.7-.07-32.92,0-61.9,21-71.18,51.53-21.84-9.28-47.41-3.13-62.21,15h231.4c27.71.07,50.24-21.59,50.32-48.39q0-.93,0-1.86C1337.79,104.4,1337.78,104.05,1337.76,103.69Z"/><ellipse class="cls-5" cx="1213" cy="243.57" rx="31.06" ry="28.86"/><polygon class="cls-1" points="1215.99 330.5 1209.63 330.5 1212.53 239.23 1215.99 330.5"/><polygon class="cls-1" points="1213.09 256.52 1219.92 247.74 1213 258.7 1212.25 257.48 1213.09 256.52"/><polygon class="cls-1" points="1209.99 265.39 1203.16 256.61 1210.09 267.56 1210.84 266.35 1209.99 265.39"/><ellipse class="cls-5" cx="841.87" cy="202.12" rx="45.87" ry="42.62"/><polygon class="cls-1" points="846.29 330.5 836.9 330.5 841.18 195.7 846.29 330.5"/><polygon class="cls-1" points="842.01 221.25 852.1 208.28 841.87 224.46 840.77 222.66 842.01 221.25"/><polygon class="cls-1" points="840.9 234.34 830.82 221.38 841.04 237.55 842.15 235.75 840.9 234.34"/><ellipse class="cls-5" cx="1019" cy="253.75" rx="24.15" ry="25.31"/><polygon class="cls-1" points="1021.33 330 1016.38 330 1018.64 249.94 1021.33 330"/><polygon class="cls-1" points="1019.07 265.11 1024.38 257.41 1019 267.01 1018.42 265.95 1019.07 265.11"/><polygon class="cls-1" points="1018.49 272.88 1013.18 265.19 1018.56 274.79 1019.14 273.72 1018.49 272.88"/><ellipse class="cls-5" cx="1096" cy="217.38" rx="35.67" ry="37.39"/><polygon class="cls-1" points="1096.11 234.16 1103.95 222.79 1096 236.98 1095.14 235.4 1096.11 234.16"/><polygon class="cls-1" points="1095.25 245.65 1087.4 234.28 1095.36 248.46 1096.22 246.89 1095.25 245.65"/><ellipse class="cls-5" cx="942.62" cy="217.38" rx="35.67" ry="37.39"/><polygon class="cls-1" points="946.05 330 938.75 330 942.08 211.75 946.05 330"/><polygon class="cls-1" points="942.73 234.16 950.57 222.79 942.62 236.98 941.76 235.4 942.73 234.16"/><polygon class="cls-1" points="941.87 245.65 934.02 234.28 941.97 248.46 942.83 246.89 941.87 245.65"/></g></g></svg>