<?xml version="1.0" standalone="no"?>
<svg width="64" height="64" viewBox="0 0 488 384" version="1.1" xmlns="http://www.w3.org/2000/svg">
  <path d="M382 145c4 -2 7 -5 9 -9c2 -3 3 -7 3 -11v-69v-13c0 -11 -8 -20 -17 -20h-266c-9 0 -17 9 -17 20v13v69v3c1 7 5 14 11 17l74 34l29 14c-1 1 -2 0 -3 1h-40c-6 0 -11 5 -11 11v30v0c1 37 12 69 30 92c14 21 36 34 60 34c22 0 42 -11 56 -29c20 -23 33 -58 34 -97v0v-30 c0 -6 -5 -11 -11 -11h-40c-1 0 -1 -1 -2 -1l29 -14zM119 179l-25 -11c-15 -7 -25 -24 -25 -42v-69h-55c-8 0 -14 7 -14 16v66c0 7 4 13 9 15l83 39c-20 12 -33 36 -33 64c0 40 28 71 62 71c10 0 20 -3 28 -8c-17 -30 -29 -68 -30 -110v0v-31zM479 153c5 -2 9 -8 9 -15v-66 c0 -9 -6 -16 -14 -16h-55v69c0 18 -11 35 -26 42l-24 11v31h-1c-1 42 -12 80 -29 110c8 5 18 9 28 9c34 0 62 -32 62 -72c0 -28 -14 -52 -34 -64z" transform="matrix(1,0,0,-1,0,384)"/>
</svg>