<?xml version="1.0" standalone="no"?>
<svg width="64" height="64" viewBox="0 0 332 384" version="1.1" xmlns="http://www.w3.org/2000/svg">
  <path d="M321 139c7 -3 11 -12 11 -21v-77v-14c0 -12 -9 -22 -19 -22h-294c-10 0 -19 10 -19 22v14v77c0 9 5 18 12 21l83 38l32 15c-1 1 -3 2 -4 3h-44c-7 0 -13 5 -13 12v33v0c1 46 18 87 42 112c13 14 29 23 47 26h2s2 1 3 1h6v0v0v0h6c1 0 2 -1 3 -1h3c18 -3 34 -13 47 -27 c24 -25 40 -65 41 -111v0v-33c0 -7 -5 -12 -12 -12h-45l-2 -2l33 -16z" transform="matrix(1,0,0,-1,0,384)"/>
</svg>